HIERARCHY
ROOT hip
{
  OFFSET 0 0 0
  CHANNELS 6 Xposition Yposition Zposition Zrotation Yrotation Xrotation
  JOINT abdomen
  {
    OFFSET 0 20.6881 -0.73152
    CHANNELS 3 Zrotation Xrotation Yrotation
    JOINT chest
    {
      OFFSET 0 11.7043 -0.48768
      CHANNELS 3 Zrotation Xrotation Yrotation
      JOINT neck
      {
        OFFSET 0 22.1894 -2.19456
        CHANNELS 3 Zrotation Xrotation Yrotation
        JOINT head
        {
          OFFSET -0.24384 7.07133 1.2192
          CHANNELS 3 Zrotation Xrotation Yrotation
          JOINT leftEye
          {
            OFFSET 4.14528 8.04674 8.04672
            CHANNELS 3 Zrotation Xrotation Yrotation
            End Site
            {
              OFFSET 1 0 0
            }
          }
          JOINT rightEye
          {
            OFFSET -3.6576 8.04674 8.04672
            CHANNELS 3 Zrotation Xrotation Yrotation
            End Site
            {
              OFFSET 1 0 0
            }
          }
        }
      }
      JOINT rCollar
      {
        OFFSET -2.68224 19.2634 -4.8768
        CHANNELS 3 Zrotation Xrotation Yrotation
        JOINT rShldr
        {
          OFFSET -8.77824 -1.95073 1.46304
          CHANNELS 3 Zrotation Xrotation Yrotation
          JOINT rForeArm
          {
            OFFSET -28.1742 -1.7115 0.48768
            CHANNELS 3 Zrotation Xrotation Yrotation
            JOINT rHand
            {
              OFFSET -22.5879 0.773209 7.07136
              CHANNELS 3 Zrotation Xrotation Yrotation
              JOINT rThumb1
              {
                OFFSET -1.2192 -0.487915 3.41376
                CHANNELS 3 Zrotation Xrotation Yrotation
                JOINT rThumb2
                {
                  OFFSET -3.37035 -0.52449 3.41376
                  CHANNELS 3 Zrotation Xrotation Yrotation
                  End Site
                  {
                    OFFSET -1.78271 -1.18214 1.43049
                  }
                }
              }
              JOINT rIndex1
              {
                OFFSET -7.75947 0.938293 5.60832
                CHANNELS 3 Zrotation Xrotation Yrotation
                JOINT rIndex2
                {
                  OFFSET -2.54057 -0.884171 1.56538
                  CHANNELS 3 Zrotation Xrotation Yrotation
                  End Site
                  {
                    OFFSET -1.62519 -0.234802 1.16502
                  }
                }
              }
              JOINT rMid1
              {
                OFFSET -8.24714 1.18213 3.41376
                CHANNELS 3 Zrotation Xrotation Yrotation
                JOINT rMid2
                {
                  OFFSET -3.10165 -0.590103 1.0647
                  CHANNELS 3 Zrotation Xrotation Yrotation
                  End Site
                  {
                    OFFSET -2.48547 -0.328903 0.83742
                  }
                }
              }
              JOINT rRing1
              {
                OFFSET -8.82822 0.546677 1.51678
                CHANNELS 3 Zrotation Xrotation Yrotation
                JOINT rRing2
                {
                  OFFSET -2.60934 -0.819778 -0.0198488
                  CHANNELS 3 Zrotation Xrotation Yrotation
                  End Site
                  {
                    OFFSET -2.33842 -0.294052 0.168128
                  }
                }
              }
              JOINT rPinky1
              {
                OFFSET -8.27202 -0.0477905 -0.4584
                CHANNELS 3 Zrotation Xrotation Yrotation
                JOINT rPinky2
                {
                  OFFSET -1.82734 -0.647385 -0.700984
                  CHANNELS 3 Zrotation Xrotation Yrotation
                  End Site
                  {
                    OFFSET -1.69225 -0.51767 -0.607171
                  }
                }
              }
            }
          }
        }
      }
      JOINT lCollar
      {
        OFFSET 2.68224 19.2634 -4.8768
        CHANNELS 3 Zrotation Xrotation Yrotation
        JOINT lShldr
        {
          OFFSET 8.77824 -1.95073 1.46304
          CHANNELS 3 Zrotation Xrotation Yrotation
          JOINT lForeArm
          {
            OFFSET 28.1742 -1.7115 0.48768
            CHANNELS 3 Zrotation Xrotation Yrotation
            JOINT lHand
            {
              OFFSET 22.5879 0.773209 7.07136
              CHANNELS 3 Zrotation Xrotation Yrotation
              JOINT lThumb1
              {
                OFFSET 1.2192 -0.487915 3.41376
                CHANNELS 3 Zrotation Xrotation Yrotation
                JOINT lThumb2
                {
                  OFFSET 3.37035 -0.52449 3.41376
                  CHANNELS 3 Zrotation Xrotation Yrotation
                  End Site
                  {
                    OFFSET 1.78271 -1.18214 1.43049
                  }
                }
              }
              JOINT lIndex1
              {
                OFFSET 7.75947 0.938293 5.60832
                CHANNELS 3 Zrotation Xrotation Yrotation
                JOINT lIndex2
                {
                  OFFSET 2.54057 -0.884171 1.56538
                  CHANNELS 3 Zrotation Xrotation Yrotation
                  End Site
                  {
                    OFFSET 1.62519 -0.234802 1.16502
                  }
                }
              }
              JOINT lMid1
              {
                OFFSET 8.24714 1.18213 3.41376
                CHANNELS 3 Zrotation Xrotation Yrotation
                JOINT lMid2
                {
                  OFFSET 3.10165 -0.590103 1.0647
                  CHANNELS 3 Zrotation Xrotation Yrotation
                  End Site
                  {
                    OFFSET 2.48547 -0.328903 0.83742
                  }
                }
              }
              JOINT lRing1
              {
                OFFSET 8.82822 0.546677 1.51678
                CHANNELS 3 Zrotation Xrotation Yrotation
                JOINT lRing2
                {
                  OFFSET 2.60934 -0.819778 -0.0198488
                  CHANNELS 3 Zrotation Xrotation Yrotation
                  End Site
                  {
                    OFFSET 2.33842 -0.294052 0.168128
                  }
                }
              }
              JOINT lPinky1
              {
                OFFSET 8.27202 -0.0477905 -0.4584
                CHANNELS 3 Zrotation Xrotation Yrotation
                JOINT lPinky2
                {
                  OFFSET 1.82734 -0.647385 -0.700984
                  CHANNELS 3 Zrotation Xrotation Yrotation
                  End Site
                  {
                    OFFSET 1.69225 -0.51767 -0.607171
                  }
                }
              }
            }
          }
        }
      }
    }
  }
  JOINT rButtock
  {
    OFFSET -8.77824 4.35084 1.2192
    CHANNELS 3 Zrotation Xrotation Yrotation
    JOINT rThigh
    {
      OFFSET 0 -1.70687 -2.19456
      CHANNELS 3 Zrotation Xrotation Yrotation
      JOINT rShin
      {
        OFFSET 0 -36.8199 0.73152
        CHANNELS 3 Zrotation Xrotation Yrotation
        JOINT rFoot
        {
          OFFSET 0.73152 -45.1104 -5.12064
          CHANNELS 3 Zrotation Xrotation Yrotation
          End Site
          {
            OFFSET -1.1221 -3.69964 12.103
          }
        }
      }
    }
  }
  JOINT lButtock
  {
    OFFSET 8.77824 4.35084 1.2192
    CHANNELS 3 Zrotation Xrotation Yrotation
    JOINT lThigh
    {
      OFFSET 0 -1.70687 -2.19456
      CHANNELS 3 Zrotation Xrotation Yrotation
      JOINT lShin
      {
        OFFSET 0 -36.8199 0.73152
        CHANNELS 3 Zrotation Xrotation Yrotation
        JOINT lFoot
        {
          OFFSET -0.73152 -45.1104 -5.12064
          CHANNELS 3 Zrotation Xrotation Yrotation
          End Site
          {
            OFFSET 1.1221 -3.69964 12.103
          }
        }
      }
    }
  }
}
MOTION
Frames:	4
Frame Time:	0.03333
-0.23697534049752142 35.72815947282476 -10.382969269290466 4.791399002075195 13.305700302124023 2.161600112915039 -3.347109794616699 16.272598266601562 -4.029430389404297 3.8777897357940674 -8.094340324401855 -0.8004589676856995 -5.399409770965576 16.94420051574707 -5.780060291290283 6.905600070953369 -29.266897201538086 -9.735950469970703 -0.0 0.0 -0.0 -0.0 0.0 -0.0 1.1131940773909457e-13 -1.176805235290207e-13 -4.261942903628635e-13 66.64440155029297 14.548800468444824 -7.644829750061035 -17.36400032043457 -10.019100189208984 32.6077995300293 -0.21192598342895508 13.002699851989746 1.8597599267959595 1.812229033504309e-09 -1.8724115591339796e-09 -1.2703389451473868e-09 3.119211111624054e-09 -3.211418686532852e-09 -2.2214075023896385e-09 1.812229033504309e-09 -1.8724115591339796e-09 -1.2703389451473868e-09 7.7309088706970215 5.474880218505859 0.41731396317481995 1.8122194855862972e-09 -1.8724115591339796e-09 -1.270332505853844e-09 2.9055399894714355 0.9651829600334167 0.10290198773145676 1.812229033504309e-09 -1.8724115591339796e-09 -1.270332505853844e-09 10.27859878540039 0.73180091381073 0.025912299752235413 1.8122194855862972e-09 -1.8724115591339796e-09 -1.2703198493113632e-09 2.2216696739196777 -0.7334870100021362 -0.2089199721813202 1.1131940773909457e-13 -1.176805235290207e-13 -4.261942903628635e-13 -59.61289596557617 43.83989334106445 -25.095600128173828 16.989299774169922 -9.63976001739502 -31.790298461914062 0.06150960549712181 7.066770076751709 -0.9982699751853943 1.0818337892182228e-10 1.127210769169551e-09 7.195877227417213e-10 1.8936067991415229e-10 1.9576089638206895e-09 1.2479223210348778e-09 1.081770228950063e-10 1.1272012212515392e-09 7.196004347953533e-10 -7.7309088706970215 5.474880218505859 -0.41731396317481995 1.0818337892182228e-10 1.127210769169551e-09 7.195941065241129e-10 -2.9055399894714355 0.9651829600334167 -0.10290198773145676 1.081770228950063e-10 1.127210769169551e-09 7.195877227417213e-10 -10.27859878540039 0.73180091381073 -0.025912299752235413 1.0818974188753216e-10 1.1272203170875628e-09 7.195750106880894e-10 -2.2216696739196777 -0.7334870100021362 0.2089199721813202 -0.0 0.0 -0.0 -17.418699264526367 -59.74539566040039 -2.627619981765747 -0.6609049439430237 50.57859802246094 0.8193969130516052 0.27332496643066406 12.491299629211426 1.8260998725891113 -0.0 0.0 -0.0 3.6378393173217773 -17.687097549438477 -2.6022698879241943 1.4467201232910156 69.09400177001953 -3.4045498371124268 9.413609504699707 -17.627201080322266 25.36870002746582
0.09236079991144935 36.05445810004378 -11.57271607883358 5.394599437713623 11.853899955749512 2.0013997554779053 -3.667459726333618 16.971900939941406 -4.326289176940918 4.065219879150391 -7.729980945587158 -0.9112249612808228 -5.233689785003662 16.878501892089844 -5.212060451507568 6.707350254058838 -29.779298782348633 -8.637239456176758 -0.0 0.0 -0.0 -0.0 0.0 -0.0 2.544443605465019e-13 -9.54166352049382e-14 3.1805545068312735e-14 67.37149047851562 13.663999557495117 -8.26150894165039 -17.607999801635742 -10.271100044250488 33.14759826660156 -0.20368999242782593 12.752699851989746 1.8227801322937012 -1.5633793148950303e-09 1.5065491076882154e-09 -7.456301132080512e-10 -2.7089896992293916e-09 2.6039486122897415e-09 -1.2685514860777403e-09 -1.5633793148950303e-09 1.5065491076882154e-09 -7.456301132080512e-10 7.7309088706970215 5.474880218505859 0.41731396317481995 -1.5633888628130421e-09 1.5065491076882154e-09 -7.456301132080512e-10 2.9055399894714355 0.9651829600334167 0.10290198773145676 -1.5633793148950303e-09 1.5065491076882154e-09 -7.456237294256596e-10 10.27859878540039 0.73180091381073 0.025912299752235413 -1.5633888628130421e-09 1.5065491076882154e-09 -7.456174011544192e-10 2.2216696739196777 -0.7334870100021362 -0.2089199721813202 2.544443605465019e-13 -9.54166352049382e-14 3.1805545068312735e-14 -58.62559509277344 43.112300872802734 -26.628297805786133 16.972797393798828 -9.623329162597656 -31.754398345947266 0.07045289874076843 7.558520793914795 -1.0685298442840576 -1.159471185729899e-09 -3.9459897571703095e-09 -1.539617433543583e-09 -2.0113699594759282e-09 -6.819500075749829e-09 -2.654280795155728e-09 -1.1594807336479107e-09 -3.9459897571703095e-09 -1.539617433543583e-09 -7.7309088706970215 5.474880218505859 -0.41731396317481995 -1.159471185729899e-09 -3.945980431296903e-09 -1.539617433543583e-09 -2.9055399894714355 0.9651829600334167 -0.10290198773145676 -1.1594807336479107e-09 -3.945980431296903e-09 -1.5396300900860638e-09 -10.27859878540039 0.73180091381073 -0.025912299752235413 -1.159471185729899e-09 -3.9459897571703095e-09 -1.539642857650847e-09 -2.2216696739196777 -0.7334870100021362 0.2089199721813202 -0.0 0.0 -0.0 -14.984599113464355 -58.20000457763672 2.8043200969696045 -0.5224409103393555 46.042198181152344 0.6124269366264343 0.5344100594520569 15.800200462341309 0.01656229980289936 -0.0 0.0 -0.0 1.268720030784607 -18.035799026489258 -3.706469774246216 1.4085001945495605 68.36709594726562 -3.228799819946289 9.72365951538086 -17.181697845458984 26.35369873046875
0.40926375487517547 36.289942532058305 -12.783490479510222 6.144999980926514 10.151800155639648 2.085200071334839 -4.406949996948242 17.542999267578125 -4.489780426025391 4.281379222869873 -7.66549015045166 -0.9863789677619934 -5.1571197509765625 16.811601638793945 -4.618499755859375 6.62576961517334 -30.22220230102539 -7.458420276641846 -0.0 0.0 -0.0 -0.0 0.0 -0.0 3.0056239073116e-13 -8.110413653606569e-14 2.035554884372015e-13 68.08889770507812 13.025699615478516 -8.986359596252441 -17.911996841430664 -10.593600273132324 33.81979751586914 -0.2054789960384369 12.800298690795898 1.8298598527908325 -2.5306494677579394e-09 2.4255004671402958e-09 -5.005111325395717e-10 -4.377209705808127e-09 4.183198676344091e-09 -8.315941268932647e-10 -2.5306494677579394e-09 2.4255004671402958e-09 -5.005175163219633e-10 7.7309088706970215 5.474880218505859 0.41731396317481995 -2.530659015675951e-09 2.4255004671402958e-09 -5.005111325395717e-10 2.9055399894714355 0.9651829600334167 0.10290198773145676 -2.5306494677579394e-09 2.4255100150583075e-09 -5.005048042683313e-10 10.27859878540039 0.73180091381073 0.025912299752235413 -2.530659015675951e-09 2.4255100150583075e-09 -5.005048042683313e-10 2.2216696739196777 -0.7334870100021362 -0.2089199721813202 3.0056239073116e-13 -8.110413653606569e-14 2.035554884372015e-13 -57.73189926147461 42.31370162963867 -27.948299407958984 16.965700149536133 -9.616199493408203 -31.73910140991211 0.07536430656909943 7.800230026245117 -1.1031599044799805 -1.7924698392235427e-09 -5.848650008744016e-09 -2.256609787920638e-09 -3.1094500307915496e-09 -1.0107499726075275e-08 -3.890587851884675e-09 -1.7924793871415545e-09 -5.848650008744016e-09 -2.256609787920638e-09 -7.7309088706970215 5.474880218505859 -0.41731396317481995 -1.7924793871415545e-09 -5.848650008744016e-09 -2.256609787920638e-09 -2.9055399894714355 0.9651829600334167 -0.10290198773145676 -1.7924906003941032e-09 -5.848650008744016e-09 -2.256622444463119e-09 -10.27859878540039 0.73180091381073 -0.025912299752235413 -1.7924698392235427e-09 -5.848650008744016e-09 -2.2566288837566617e-09 -2.2216696739196777 -0.7334870100021362 0.2089199721813202 -0.0 0.0 -0.0 -13.211199760437012 -57.451995849609375 7.306230545043945 -0.4262579679489136 41.95979690551758 0.46677595376968384 0.46437200903892517 14.43179988861084 0.41763895750045776 -0.0 0.0 -0.0 -0.9206700921058655 -18.613298416137695 -4.176259994506836 1.3364297151565552 67.4873046875 -3.1042401790618896 10.141398429870605 -16.939699172973633 27.450599670410156
0.672595161620538 36.439714920178346 -14.074307120018304 6.798999309539795 8.290900230407715 2.3790998458862305 -5.570959091186523 17.986799240112305 -4.518059253692627 4.524960517883301 -7.900869369506836 -1.0260900259017944 -5.169589519500732 16.74340057373047 -3.9993999004364014 6.658129692077637 -30.5929012298584 -6.200379848480225 -0.0 0.0 -0.0 -0.0 0.0 -0.0 2.5285407990495445e-13 -7.633330816395056e-14 8.905552619127566e-14 68.802490234375 12.632200241088867 -9.8197603225708 -18.27069854736328 -10.982100486755371 34.62619400024414 -0.21752101182937622 13.145200729370117 1.8810597658157349 -1.0895896407348005e-09 8.844470156255113e-10 -5.349883314131887e-10 -1.8854406924617706e-09 1.5263004193855068e-09 -9.105482479121463e-10 -1.0895800928167887e-09 8.844485699377458e-10 -5.349883314131887e-10 7.7309088706970215 5.474880218505859 0.41731396317481995 -1.0895896407348005e-09 8.844485699377458e-10 -5.349756193595567e-10 2.9055399894714355 0.9651829600334167 0.10290198773145676 -1.0895896407348005e-09 8.844517895845172e-10 -5.349756193595567e-10 10.27859878540039 0.73180091381073 0.025912299752235413 -1.0895991886528122e-09 8.844533438967517e-10 -5.349629073059248e-10 2.2216696739196777 -0.7334870100021362 -0.2089199721813202 2.5285407990495445e-13 -7.633330816395056e-14 8.905552619127566e-14 -56.92769241333008 41.452205657958984 -29.06199836730957 16.968103408813477 -9.618390083312988 -31.744497299194336 0.0753306970000267 7.791940212249756 -1.1019898653030396 -1.79081915963053e-09 -4.580779311424976e-09 -1.4313894514117464e-09 -3.1049003368366357e-09 -7.906478138863804e-09 -2.4610113946721413e-09 -1.7908302618607763e-09 -4.580788637298383e-09 -1.4313767948692657e-09 -7.7309088706970215 5.474880218505859 -0.41731396317481995 -1.79081915963053e-09 -4.580788637298383e-09 -1.4313894514117464e-09 -2.9055399894714355 0.9651829600334167 -0.10290198773145676 -1.7908302618607763e-09 -4.580788637298383e-09 -1.4313894514117464e-09 -10.27859878540039 0.73180091381073 -0.025912299752235413 -1.79081915963053e-09 -4.580788637298383e-09 -1.4314022189765296e-09 -2.2216696739196777 -0.7334870100021362 0.2089199721813202 -0.0 0.0 -0.0 -11.63809871673584 -57.567100524902344 11.26569938659668 -0.3520520031452179 38.33169937133789 0.3650059700012207 0.32221296429634094 8.382050514221191 2.980299711227417 -0.0 0.0 -0.0 -2.9157402515411377 -19.425199508666992 -4.007689476013184 1.2271000146865845 66.45479583740234 -3.028029441833496 10.678098678588867 -16.893999099731445 28.66109848022461
